<svg xmlns="http://www.w3.org/2000/svg" viewBox="0 0 1024 1024" role="img" aria-label="たべきりポッケ app icon">
  <defs>
    <linearGradient id="bg" x1="144" y1="96" x2="880" y2="928" gradientUnits="userSpaceOnUse">
      <stop stop-color="#66D9E8"/>
      <stop offset=".54" stop-color="#0EA5E9"/>
      <stop offset="1" stop-color="#34D399"/>
    </linearGradient>
    <linearGradient id="fridge" x1="292" y1="202" x2="730" y2="808" gradientUnits="userSpaceOnUse">
      <stop stop-color="#FFFFFF"/>
      <stop offset="1" stop-color="#EAF7FB"/>
    </linearGradient>
    <filter id="shadow" x="132" y="112" width="760" height="804" filterUnits="userSpaceOnUse" color-interpolation-filters="sRGB">
      <feDropShadow dx="0" dy="32" stdDeviation="36" flood-color="#174151" flood-opacity=".24"/>
    </filter>
  </defs>
  <rect width="1024" height="1024" fill="url(#bg)"/>
  <circle cx="796" cy="210" r="116" fill="#FDE68A" opacity=".95"/>
  <circle cx="206" cy="786" r="96" fill="#FFFFFF" opacity=".18"/>
  <path d="M198 334c46-58 96-88 150-88 87 0 122 78 202 78 69 0 96-58 166-58 54 0 96 30 126 90" fill="none" stroke="#FFFFFF" stroke-width="34" stroke-linecap="round" opacity=".2"/>
  <g filter="url(#shadow)">
    <path d="M316 186h392c56 0 102 46 102 102v448c0 56-46 102-102 102H316c-56 0-102-46-102-102V288c0-56 46-102 102-102z" fill="url(#fridge)"/>
    <path d="M214 394h596" stroke="#B8E7F3" stroke-width="26"/>
    <path d="M512 214v594" stroke="#D5EEF5" stroke-width="22"/>
    <path d="M316 300h100" stroke="#0EA5E9" stroke-width="34" stroke-linecap="round"/>
    <path d="M610 300h98" stroke="#34D399" stroke-width="34" stroke-linecap="round"/>
    <rect x="290" y="462" width="164" height="200" rx="42" fill="#DFF8FF"/>
    <path d="M336 560l42 42 82-96" fill="none" stroke="#0EA5E9" stroke-width="34" stroke-linecap="round" stroke-linejoin="round"/>
    <path d="M610 448c58 0 106 48 106 106s-48 106-106 106-106-48-106-106 48-106 106-106z" fill="#FF7A7A"/>
    <path d="M640 438c22-45 58-68 108-72" fill="none" stroke="#22C55E" stroke-width="28" stroke-linecap="round"/>
    <path d="M622 448c-26-36-62-52-108-48" fill="none" stroke="#22C55E" stroke-width="28" stroke-linecap="round"/>
    <path d="M570 688h112" stroke="#174151" stroke-width="34" stroke-linecap="round" opacity=".72"/>
  </g>
  <path d="M744 704l40 40 90-104" fill="none" stroke="#FFFFFF" stroke-width="44" stroke-linecap="round" stroke-linejoin="round"/>
</svg>
